<svg width="1029" height="105" viewBox="0 0 1029 105" fill="none" xmlns="http://www.w3.org/2000/svg">
<g clip-path="url(#clip0_1040_12720)">
<path d="M124.573 1.78711H140.023C141.399 1.78711 142.525 2.90201 142.525 4.28995V83.1295C142.525 84.506 143.64 85.6323 145.028 85.6323H221.831C223.208 85.6323 224.334 86.7472 224.334 88.1351V101.548C224.334 102.925 223.219 104.051 221.831 104.051H124.573C123.197 104.051 122.07 102.936 122.07 101.548V4.28995C122.07 2.91339 123.185 1.78711 124.573 1.78711Z" fill="#0BFD7B"/>
<path d="M306.917 85.6209C309.932 85.6209 312.378 84.6539 314.255 82.7313C316.132 80.8086 317.065 78.283 317.065 75.1545V4.28995C317.065 2.91339 318.18 1.78711 319.567 1.78711H335.017C336.393 1.78711 337.52 2.90201 337.52 4.28995V73.2887C337.52 82.5492 334.71 89.9895 329.09 95.6095C323.47 101.23 316.075 104.04 306.917 104.04H266.007C256.746 104.04 249.306 101.23 243.686 95.6095C238.066 89.9895 235.256 82.5492 235.256 73.2887V4.28995C235.256 2.91339 236.371 1.78711 237.759 1.78711H253.208C254.585 1.78711 255.711 2.90201 255.711 4.28995V75.1659C255.711 78.283 256.678 80.8086 258.601 82.7427C260.523 84.6653 262.992 85.6323 266.018 85.6323H306.928L306.917 85.6209Z" fill="#0BFD7B"/>
<path d="M402.094 42.0939L431.695 2.77653C432.173 2.15082 432.913 1.77539 433.698 1.77539H448.214C449.591 1.77539 450.717 2.89029 450.717 4.27823V101.536C450.717 102.913 449.602 104.039 448.214 104.039H432.765C431.388 104.039 430.262 102.924 430.262 101.548L430.125 43.1747C430.125 40.8197 427.156 39.7731 425.677 41.6047L408.999 62.2076C408.521 62.7992 407.805 63.1405 407.054 63.1405H392.276C391.513 63.1405 390.797 62.7992 390.319 62.1963L373.777 41.4909C372.31 39.6479 369.34 40.6832 369.318 43.0381L368.92 101.559C368.92 102.936 367.793 104.039 366.417 104.039H350.956C349.579 104.039 348.453 102.924 348.453 101.536V4.28961C348.453 2.91305 349.568 1.78677 350.956 1.78677H365.654C366.428 1.78677 367.156 2.13944 367.634 2.75377L398.135 42.128C399.147 43.4363 401.115 43.4136 402.116 42.1053L402.094 42.0939Z" fill="#0BFD7B"/>
<path d="M482.082 64.5515V83.1181C482.082 84.4946 483.197 85.6209 484.585 85.6209H561.388C562.764 85.6209 563.891 86.7358 563.891 88.1238V101.537C563.891 102.913 562.776 104.04 561.388 104.04H464.13C462.753 104.04 461.627 102.925 461.627 101.537V4.28995C461.627 2.91339 462.742 1.78711 464.13 1.78711H561.388C562.764 1.78711 563.891 2.90201 563.891 4.28995V17.7143C563.891 19.0908 562.776 20.2171 561.388 20.2171H484.585C483.208 20.2171 482.082 21.332 482.082 22.72V41.1386C482.082 42.5152 483.197 43.6414 484.585 43.6414H561.388C562.764 43.6414 563.891 44.7563 563.891 46.1443V59.5572C563.891 60.9338 562.776 62.0601 561.388 62.0601H484.585C483.208 62.0601 482.082 63.175 482.082 64.5629V64.5515Z" fill="#0BFD7B"/>
<path d="M577.327 1.78711H674.744C676.121 1.78711 677.247 2.90201 677.247 4.28995V17.7143C677.247 19.0908 676.132 20.2171 674.744 20.2171H638.84C637.463 20.2171 636.337 21.332 636.337 22.72V101.559C636.337 102.936 635.222 104.062 633.834 104.062H618.225C616.849 104.062 615.723 102.947 615.723 101.559V22.7086C615.723 21.332 614.608 20.2057 613.22 20.2057H577.315C575.939 20.2057 574.812 19.0908 574.812 17.7029V4.28995C574.812 2.91339 575.927 1.78711 577.315 1.78711H577.327Z" fill="#0BFD7B"/>
<path d="M688.168 4.28995C688.168 2.91339 689.283 1.78711 690.671 1.78711H761.865C771.126 1.78711 778.566 4.59712 784.186 10.2171C789.806 15.8371 792.616 23.2319 792.616 32.39C792.616 40.5129 790.17 47.2478 785.278 52.6062C781.137 57.1454 775.847 60.0578 769.408 61.3434C767.701 61.6847 766.894 63.6642 767.827 65.1317L790.17 100.206C791.228 101.867 790.034 104.051 788.065 104.051H770.91C770.045 104.051 769.237 103.607 768.782 102.868L744.175 63.2319C743.72 62.4924 742.912 62.0487 742.047 62.0487H711.126C709.749 62.0487 708.623 63.1636 708.623 64.5515V101.548C708.623 102.925 707.508 104.051 706.12 104.051H690.671C689.294 104.051 688.168 102.936 688.168 101.548V4.28995ZM761.865 43.6301C764.88 43.6301 767.36 42.6972 769.283 40.8201C771.205 38.9429 772.172 36.497 772.172 33.4822V30.365C772.172 27.3502 771.205 24.9043 769.283 23.0271C767.36 21.15 764.88 20.2171 761.865 20.2171H711.126C709.749 20.2171 708.623 21.332 708.623 22.72V41.1386C708.623 42.5152 709.738 43.6414 711.126 43.6414H761.865V43.6301Z" fill="#0BFD7B"/>
<path d="M806.052 1.78711H903.31C904.686 1.78711 905.813 2.90201 905.813 4.28995V17.7143C905.813 19.0908 904.698 20.2171 903.31 20.2171H867.405C866.029 20.2171 864.903 21.332 864.903 22.72V83.1295C864.903 84.506 866.017 85.6323 867.405 85.6323H903.31C904.686 85.6323 905.813 86.7472 905.813 88.1351V101.548C905.813 102.925 904.698 104.051 903.31 104.051H806.052C804.675 104.051 803.549 102.936 803.549 101.548V88.1351C803.549 86.7586 804.664 85.6323 806.052 85.6323H841.956C843.333 85.6323 844.459 84.5174 844.459 83.1295V22.7086C844.459 21.332 843.344 20.2057 841.956 20.2057H806.052C804.675 20.2057 803.549 19.0908 803.549 17.7029V4.28995C803.549 2.91339 804.664 1.78711 806.052 1.78711Z" fill="#0BFD7B"/>
<path d="M1024.41 104.039H1004.23C1003.49 104.039 1002.77 103.709 1002.3 103.129L973.294 68.1231C972.293 66.9172 970.427 66.9172 969.438 68.1231L940.735 103.117C940.257 103.698 939.551 104.027 938.801 104.027H920.336C918.22 104.027 917.06 101.559 918.414 99.9205L957.697 52.6965C958.471 51.775 958.471 50.4212 957.697 49.4997L921.52 5.85923C920.166 4.23238 921.326 1.76367 923.442 1.76367H943.169C943.909 1.76367 944.614 2.09359 945.092 2.66242L970.837 33.6408C971.838 34.8467 973.681 34.8467 974.682 33.6408L1000.43 2.66242C1000.91 2.09359 1001.61 1.76367 1002.35 1.76367H1021.37C1023.5 1.76367 1024.66 4.26651 1023.28 5.88198L986.616 49.0219C985.831 49.9547 985.82 51.3085 986.605 52.2414L1026.33 99.9092C1027.69 101.536 1026.54 104.016 1024.41 104.016V104.039Z" fill="#0BFD7B"/>
<path d="M102.55 1.73242H10.714C5.6581 1.73242 1.56791 5.7545 1.56791 10.7262V56.131C2.29505 55.226 3.05628 54.3322 3.82887 53.4607L1.56791 56.131L0 103.904C6.82835 103.848 13.6567 103.793 20.485 103.748C20.7918 100.452 22.3711 87.4808 33.5737 76.9675C43.7991 67.3816 55.6266 65.851 59.2169 65.527H102.55C107.606 65.527 111.696 61.5049 111.696 56.5332V10.7262C111.696 5.7545 107.606 1.73242 102.55 1.73242ZM93.3586 47.8522H59.3759C59.3646 47.8522 59.3419 47.8522 59.3305 47.8522H59.2055C54.9222 47.8745 36.4709 48.4443 20.3373 62.2758V62.2534L20.485 39.4952V19.4184H93.3586V47.8522Z" fill="#0BFD7B"/>
</g>
<defs>
<clipPath id="clip0_1040_12720">
<rect width="1028.65" height="104.039" fill="white"/>
</clipPath>
</defs>
</svg>
