<svg width="255" height="270" viewBox="0 0 255 270" fill="none" xmlns="http://www.w3.org/2000/svg">
<g clip-path="url(#clip0_1040_12739)">
<path d="M235.725 46.6973H19.2594C8.62031 46.6973 0 54.2566 0 63.5695V253.128C0 262.441 8.62031 270 19.2594 270H235.725C246.364 270 254.984 262.441 254.984 253.128V63.5695C254.984 54.2566 246.364 46.6973 235.725 46.6973ZM234.62 235.298C234.62 244.611 226 252.17 215.36 252.17H39.624C28.9849 252.17 20.3646 244.611 20.3646 235.298V81.3996C20.3646 72.0867 28.9849 64.5273 39.624 64.5273H215.346C225.985 64.5273 234.605 72.0867 234.605 81.3996V235.283L234.62 235.298Z" fill="#10D961"/>
<path d="M96.2529 42.4385C99.8778 26.9219 113.759 15.3692 130.38 15.3692C147.002 15.3692 160.883 26.9366 164.508 42.4385H180.187C176.341 18.39 155.519 0 130.38 0C105.242 0 84.4202 18.39 80.5742 42.4385H96.2529Z" fill="#10D961"/>
<path d="M181.129 98.6836H75.6519C69.846 98.6836 65.1454 103.384 65.1454 109.19V162.223C65.9853 161.162 66.8547 160.116 67.7389 159.099L65.1454 162.223L63.3477 218.027C71.187 217.968 79.041 217.909 86.8804 217.835C87.234 213.975 89.0465 198.841 101.911 186.567C113.655 175.368 127.226 173.585 131.367 173.201H181.144C186.95 173.201 191.65 168.501 191.65 162.695V109.19C191.65 103.384 186.95 98.6836 181.144 98.6836H181.129ZM170.564 152.542H131.544C131.544 152.542 131.514 152.542 131.5 152.542H131.352C126.445 152.557 105.241 153.235 86.7183 169.385V169.355L86.8951 142.772V119.328H170.578V152.542H170.564Z" fill="#10D961"/>
</g>
<defs>
<clipPath id="clip0_1040_12739">
<rect width="254.984" height="270" fill="white"/>
</clipPath>
</defs>
</svg>
